<?xml version="1.0" encoding="utf-8"?>
<svg id="master-artboard" viewBox="0 0 257.5289611816406 400.0037536621094" version="1.1" xmlns="http://www.w3.org/2000/svg" x="0px" y="0px" style="enable-background:new 0 0 1400 980;" width="257.5289611816406px" height="400.0037536621094px" xmlns:xlink="http://www.w3.org/1999/xlink"><rect id="ee-background" x="0" y="0" width="257.5289611816406" height="400.0037536621094" style="fill: rgb(255, 13, 0); fill-opacity: 0; pointer-events: none;" transform="matrix(1, 0, 0, 1, -1, -1)"/>

<pattern width="27.2" height="27.2" patternUnits="userSpaceOnUse" id="New_Pattern_Swatch_1" viewBox="0 -27.2 27.2 27.2" style="overflow:visible;">
	<g>
		<path d="M 0 0 L 27.200000762939453 0 L 27.200000762939453 -27.200000762939453 L 0 -27.200000762939453 Z" class="st0" style="fill: none;"/>
		<path d="M 27.200000762939453 0 L 0 0 L 0 -27.200000762939453 L 27.200000762939453 -27.200000762939453 Z" class="st1" style="fill: rgb(142, 15, 27);"/>
		<path d="M 27.200000762939453 -27.200000762939453 L 0 0 L 0 -27.200000762939453 Z" class="st2" style="fill: rgb(190, 30, 45);"/>
	</g>
</pattern>
<pattern width="27.2" height="27.2" patternUnits="userSpaceOnUse" id="New_Pattern_Swatch_2" viewBox="0 -27.2 27.2 27.2" style="overflow:visible;">
	<g>
		<path d="M 0 0 L 27.200000762939453 0 L 27.200000762939453 -27.200000762939453 L 0 -27.200000762939453 Z" class="st0" style="fill: none;"/>
		<path d="M 27.200000762939453 0 L 0 0 L 0 -27.200000762939453 L 27.200000762939453 -27.200000762939453 Z" class="st2" style="fill: rgb(190, 30, 45);"/>
		<path class="st3" d="M22.1-13.6c0,4.7-3.8,8.5-8.5,8.5c-4.7,0-8.5-3.8-8.5-8.5c0-4.7,3.8-8.5,8.5-8.5&#10;&#9;&#9;&#9;C18.3-22.1,22.1-18.3,22.1-13.6z" style="fill: rgb(255, 255, 255);"/>
		<path class="st2" d="M19.2-13.6c0,3.1-2.5,5.6-5.6,5.6c-3.1,0-5.6-2.5-5.6-5.6c0-3.1,2.5-5.6,5.6-5.6&#10;&#9;&#9;&#9;C16.7-19.2,19.2-16.7,19.2-13.6z" style="fill: rgb(190, 30, 45);"/>
		<path d="M 0 -21.399999618530273 L 0 -17.100000381469727 L 10 -27.200000762939453 L 5.800000190734863 -27.200000762939453 Z" class="st4" style="fill: rgb(241, 242, 242);"/>
		<path d="M 21.399999618530273 -27.200000762939453 L 17.100000381469727 -27.200000762939453 L 27.200000762939453 -17.100000381469727 L 27.200000762939453 -21.399999618530273 Z" class="st4" style="fill: rgb(241, 242, 242);"/>
		<path d="M 5.800000190734863 0 L 10 0 L 0 -10 L 0 -5.800000190734863 Z" class="st4" style="fill: rgb(241, 242, 242);"/>
		<path d="M 27.200000762939453 -5.800000190734863 L 27.200000762939453 -10 L 17.100000381469727 0 L 21.399999618530273 0 Z" class="st4" style="fill: rgb(241, 242, 242);"/>
	</g>
</pattern>
<pattern width="54.3" height="54.3" patternUnits="userSpaceOnUse" id="New_Pattern_Swatch_3" viewBox="13.6 -67.9 54.3 54.3" style="overflow:visible;">
	<g>
		<path d="M 13.600000381469727 -67.9000015258789 L 67.9000015258789 -67.9000015258789 L 67.9000015258789 -13.600000381469727 L 13.600000381469727 -13.600000381469727 Z" class="st0" style="fill: none;"/>
		<g>
			<path d="M 67.9000015258789 0 L 40.70000076293945 0 L 40.70000076293945 -27.200000762939453 L 67.9000015258789 -27.200000762939453 Z" class="st2" style="fill: rgb(190, 30, 45);"/>
			<path d="M 54.29999923706055 -3.700000047683716 L 44.400001525878906 -13.600000381469727 L 54.29999923706055 -23.5 L 64.30000305175781 -13.600000381469727 Z" class="st3" style="fill: rgb(255, 255, 255);"/>
		</g>
		<g>
			<path d="M 40.70000076293945 0 L 13.600000381469727 0 L 13.600000381469727 -27.200000762939453 L 40.70000076293945 -27.200000762939453 Z" class="st2" style="fill: rgb(190, 30, 45);"/>
			<path d="M 27.200000762939453 -3.700000047683716 L 17.200000762939453 -13.600000381469727 L 27.200000762939453 -23.5 L 37.099998474121094 -13.600000381469727 Z" class="st3" style="fill: rgb(255, 255, 255);"/>
		</g>
		<g>
			<path d="M 81.5 -27.200000762939453 L 54.29999923706055 -27.200000762939453 L 54.29999923706055 -54.29999923706055 L 81.5 -54.29999923706055 Z" class="st2" style="fill: rgb(190, 30, 45);"/>
			<path d="M 67.9000015258789 -30.799999237060547 L 58 -40.70000076293945 L 67.9000015258789 -50.70000076293945 L 77.80000305175781 -40.70000076293945 Z" class="st3" style="fill: rgb(255, 255, 255);"/>
		</g>
		<g>
			<path d="M 54.29999923706055 -27.200000762939453 L 27.200000762939453 -27.200000762939453 L 27.200000762939453 -54.29999923706055 L 54.29999923706055 -54.29999923706055 Z" class="st2" style="fill: rgb(190, 30, 45);"/>
			<path d="M 40.70000076293945 -30.799999237060547 L 30.799999237060547 -40.70000076293945 L 40.70000076293945 -50.70000076293945 L 50.70000076293945 -40.70000076293945 Z" class="st3" style="fill: rgb(255, 255, 255);"/>
		</g>
		<g>
			<path d="M 27.200000762939453 -27.200000762939453 L 0 -27.200000762939453 L 0 -54.29999923706055 L 27.200000762939453 -54.29999923706055 Z" class="st2" style="fill: rgb(190, 30, 45);"/>
			<path d="M 13.600000381469727 -30.799999237060547 L 3.700000047683716 -40.70000076293945 L 13.600000381469727 -50.70000076293945 L 23.5 -40.70000076293945 Z" class="st3" style="fill: rgb(255, 255, 255);"/>
		</g>
		<g>
			<path d="M 67.9000015258789 -54.29999923706055 L 40.70000076293945 -54.29999923706055 L 40.70000076293945 -81.5 L 67.9000015258789 -81.5 Z" class="st2" style="fill: rgb(190, 30, 45);"/>
			<path d="M 54.29999923706055 -58 L 44.400001525878906 -67.9000015258789 L 54.29999923706055 -77.80000305175781 L 64.30000305175781 -67.9000015258789 Z" class="st3" style="fill: rgb(255, 255, 255);"/>
		</g>
		<g>
			<path d="M 40.70000076293945 -54.29999923706055 L 13.600000381469727 -54.29999923706055 L 13.600000381469727 -81.5 L 40.70000076293945 -81.5 Z" class="st2" style="fill: rgb(190, 30, 45);"/>
			<path d="M 27.200000762939453 -58 L 17.200000762939453 -67.9000015258789 L 27.200000762939453 -77.80000305175781 L 37.099998474121094 -67.9000015258789 Z" class="st3" style="fill: rgb(255, 255, 255);"/>
		</g>
	</g>
</pattern>
<pattern width="27.2" height="27.2" patternUnits="userSpaceOnUse" id="New_Pattern_Swatch_4" viewBox="0 -27.2 27.2 27.2" style="overflow:visible;">
	<g>
		<path d="M 0 -27.200000762939453 L 27.200000762939453 -27.200000762939453 L 27.200000762939453 0 L 0 0 Z" class="st0" style="fill: none;"/>
		<path d="M 27.200000762939453 0 L 0 0 L 0 -27.200000762939453 L 27.200000762939453 -27.200000762939453 Z" class="st5" style="fill: rgb(14, 34, 66);"/>
		<path class="st6" d="M13.6-27.2C6.1-27.2,0-21.1,0-13.6c7.5,0,13.6,6.1,13.6,13.6c0-7.5,6.1-13.6,13.6-13.6&#10;&#9;&#9;&#9;C27.2-21.1,21.1-27.2,13.6-27.2z" style="fill: rgb(44, 59, 92);"/>
	</g>
</pattern>
<pattern width="27" height="27" patternUnits="userSpaceOnUse" id="New_Pattern_Swatch_8" viewBox="6.7 -33.7 27 27" style="overflow:visible;">
	<g>
		<path d="M 6.699999809265137 -33.70000076293945 L 33.70000076293945 -33.70000076293945 L 33.70000076293945 -6.699999809265137 L 6.699999809265137 -6.699999809265137 Z" class="st0" style="fill: none;"/>
		<g>
			<path d="M 33.70000076293945 0 L 20.200000762939453 0 L 20.200000762939453 -13.5 L 33.70000076293945 -13.5 Z" class="st5" style="fill: rgb(14, 34, 66);"/>
			<path class="st3" d="M30-3.8C26.3,0,20.2,0,20.2,0s0-6,3.8-9.7c3.7-3.7,9.7-3.8,9.7-3.8S33.7-7.5,30-3.8z" style="fill: rgb(255, 255, 255);"/>
		</g>
		<g>
			<path d="M 20.200000762939453 0 L 6.699999809265137 0 L 6.699999809265137 -13.5 L 20.200000762939453 -13.5 Z" class="st5" style="fill: rgb(14, 34, 66);"/>
			<path class="st3" d="M16.5-3.8C12.8,0,6.7,0,6.7,0s0-6,3.8-9.7c3.7-3.7,9.7-3.8,9.7-3.8S20.2-7.5,16.5-3.8z" style="fill: rgb(255, 255, 255);"/>
		</g>
		<g>
			<path d="M 40.5 -13.5 L 27 -13.5 L 27 -27 L 40.5 -27 Z" class="st5" style="fill: rgb(14, 34, 66);"/>
			<path class="st3" d="M36.7-17.2C33-13.5,27-13.5,27-13.5s0-6,3.8-9.7c3.7-3.7,9.7-3.8,9.7-3.8S40.5-21,36.7-17.2z" style="fill: rgb(255, 255, 255);"/>
		</g>
		<g>
			<path d="M 27 -13.5 L 13.5 -13.5 L 13.5 -27 L 27 -27 Z" class="st5" style="fill: rgb(14, 34, 66);"/>
			<path class="st3" d="M23.2-17.2c-3.7,3.7-9.7,3.8-9.7,3.8s0-6,3.8-9.7C21-27,27-27,27-27S27-21,23.2-17.2z" style="fill: rgb(255, 255, 255);"/>
		</g>
		<g>
			<path d="M 13.5 -13.5 L 0 -13.5 L 0 -27 L 13.5 -27 Z" class="st5" style="fill: rgb(14, 34, 66);"/>
			<path class="st3" d="M9.7-17.2C6-13.5,0-13.5,0-13.5s0-6,3.8-9.7C7.5-27,13.5-27,13.5-27S13.5-21,9.7-17.2z" style="fill: rgb(255, 255, 255);"/>
		</g>
		<g>
			<path d="M 33.70000076293945 -27 L 20.200000762939453 -27 L 20.200000762939453 -40.5 L 33.70000076293945 -40.5 Z" class="st5" style="fill: rgb(14, 34, 66);"/>
			<path class="st3" d="M30-30.7C26.3-27,20.2-27,20.2-27s0-6,3.8-9.7c3.7-3.7,9.7-3.8,9.7-3.8S33.7-34.5,30-30.7z" style="fill: rgb(255, 255, 255);"/>
		</g>
		<g>
			<path d="M 20.200000762939453 -27 L 6.699999809265137 -27 L 6.699999809265137 -40.5 L 20.200000762939453 -40.5 Z" class="st5" style="fill: rgb(14, 34, 66);"/>
			<path class="st3" d="M16.5-30.7C12.8-27,6.7-27,6.7-27s0-6,3.8-9.7c3.7-3.7,9.7-3.8,9.7-3.8S20.2-34.5,16.5-30.7z" style="fill: rgb(255, 255, 255);"/>
		</g>
	</g>
</pattern>
<pattern width="27.2" height="27.2" patternUnits="userSpaceOnUse" id="New_Pattern_Swatch_9" viewBox="0 -27.2 27.2 27.2" style="overflow:visible;">
	<g>
		<path d="M 0 0 L 27.200000762939453 0 L 27.200000762939453 -27.200000762939453 L 0 -27.200000762939453 Z" class="st0" style="fill: none;"/>
		<g>
			<path d="M 27.200000762939453 0 L 0 0 L 0 -27.200000762939453 L 27.200000762939453 -27.200000762939453 Z" class="st5" style="fill: rgb(14, 34, 66);"/>
		</g>
		<g>
			<path class="st3" d="M13.6-2.9c-5.1,0-7.2-5.1-9.1-9.7c-1.3-3.1-2.8-6.6-4.5-6.6v-5c5.1,0,7.2,5.1,9.1,9.7&#10;&#9;&#9;&#9;&#9;c1.3,3.1,2.8,6.6,4.5,6.6s3.2-3.5,4.5-6.6c1.9-4.5,4-9.7,9.1-9.7v5c-1.7,0-3.2,3.5-4.5,6.6C20.8-8.1,18.6-2.9,13.6-2.9z" style="fill: rgb(255, 255, 255);"/>
		</g>
	</g>
</pattern>

<g transform="matrix(1, 0, 0, 1, -582.3418483734131, -151.08209228515625)">
	
	<g transform="matrix(1, 0, 0, 1, 103.25094375608046, 76.40904235839838)">
		<g transform="matrix(0.9999999999999999, 0, 0, 0.9999999999999999, -73.98335354951388, -147.96670709902762)">
			<g>
				
				
			</g>
			
			<g transform="matrix(1, 0, 0, 1, -306.4981162030478, 150.61891199523717)">
				<path class="st4" d="M1115.2,461.8c0,4.5-3.7,8.2-8.2,8.2H868.4c-4.5,0-8.2-3.7-8.2-8.2V81.5c0-4.5,3.7-8.2,8.2-8.2H1107&#10;&#9;&#9;&#9;&#9;&#9;c4.5,0,8.2,3.7,8.2,8.2V461.8z" style="fill: rgb(241, 242, 242);"/>
				<g>
					<path class="st10" d="M1100.4,444.4c0,4.3-3.5,7.8-7.8,7.8H882.8c-4.3,0-7.8-3.5-7.8-7.8V98.8c0-4.3,3.5-7.8,7.8-7.8h209.8&#10;&#9;&#9;&#9;&#9;&#9;&#9;c4.3,0,7.8,3.5,7.8,7.8V444.4z" style="fill: none; stroke: rgb(142, 15, 27); stroke-width: 1.8959; stroke-miterlimit: 10;"/>
					<pattern id="SVGID_3_" patternTransform="matrix(1 0 0 1 15.5269 -7.6362)" xlink:href="#New_Pattern_Swatch_3">
					</pattern>
					<path class="st13" d="M1096.9,441.8c0,4.3-3.4,7.7-7.6,7.7H886c-4.2,0-7.6-3.5-7.6-7.7V101.4c0-4.3,3.4-7.7,7.6-7.7h203.2&#10;&#9;&#9;&#9;&#9;&#9;&#9;c4.2,0,7.6,3.5,7.6,7.7V441.8z" style="fill: url('#SVGID_3_');"/>
				</g>
			</g>
		</g>
		
		
		
	</g>
</g>
</svg>